<mxfile host="app.diagrams.net" modified="2021-10-17T07:07:25.821Z" agent="5.0 (iPad; CPU OS 15_0 like Mac OS X) AppleWebKit/605.1.15 (KHTML, like Gecko) CriOS/94.0.4606.76 Mobile/15E148 Safari/604.1" etag="hl2-KK6qx3gt8x30k6EU" version="15.5.4" type="github">
  <diagram id="QkMUWHlYFy6bRUaOwXhp" name="Page-1">
    <mxGraphModel dx="1390" dy="617" grid="0" gridSize="10" guides="1" tooltips="1" connect="1" arrows="1" fold="1" page="0" pageScale="1" pageWidth="827" pageHeight="1169" math="0" shadow="0">
      <root>
        <mxCell id="0" />
        <mxCell id="1" parent="0" />
        <mxCell id="b9YqWjd7TGU8NG2d6bEc-1" value="describe" style="shape=umlFrame;whiteSpace=wrap;html=1;sketch=1;hachureGap=4;pointerEvents=0;fontFamily=Architects Daughter;fontSource=https%3A%2F%2Ffonts.googleapis.com%2Fcss%3Ffamily%3DArchitects%2BDaughter;fontSize=20;" vertex="1" parent="1">
          <mxGeometry x="-33" y="325" width="300" height="200" as="geometry" />
        </mxCell>
      </root>
    </mxGraphModel>
  </diagram>
</mxfile>
